# xmcd
# Copyright (C) 1995-1998 Ti Kan
#
# Track frame offsets:
#       150
#       14574
#       19429
#       25371
#       31759
#       41198
#
# Disc length: 685 seconds
#
# Revision: 0
# Processed by: cddbd v1.5.2PL0 Copyright (c) Steve Scherf et al.
# Submitted via: CD-Import v1.0
#
DISCID=4902ab06
DTITLE=Kulinarium - 
DYEAR=1900
DGENRE=
TTITLE0=Louis Armstrong
TTITLE1=Stimmt Es, Dass Es Mehr Eiweiss Im Eigelb Hat Als Im Eiweiss
TTITLE2=Darf Man Fleisch Nur Einmal Pro Seite Anbraten?
TTITLE3=Was Isst Man An Heissen Tagen?
TTITLE4=Was Ist Das Mit Demm Koprk Und Dem Tintenfisch?
TTITLE5=Woher Kommt Die Vanille?
EXTD=
EXTT0=
EXTT1=
EXTT2=
EXTT3=
EXTT4=
EXTT5=
PLAYORDER=
